<?xml version="1.0" encoding="UTF-8" standalone="no"?>
<!-- Created with Inkscape (http://www.inkscape.org/) -->

<svg
   xmlns:dc="http://purl.org/dc/elements/1.1/"
   xmlns:cc="http://creativecommons.org/ns#"
   xmlns:rdf="http://www.w3.org/1999/02/22-rdf-syntax-ns#"
   xmlns:svg="http://www.w3.org/2000/svg"
   xmlns="http://www.w3.org/2000/svg"
   version="1.1"
   width="292.36414"
   height="292.36414"
   id="svg3004"
   xml:space="preserve"><metadata
     id="metadata3010"><rdf:RDF><cc:Work
         rdf:about=""><dc:format>image/svg+xml</dc:format><dc:type
           rdf:resource="http://purl.org/dc/dcmitype/StillImage" /><dc:title></dc:title></cc:Work></rdf:RDF></metadata><defs
     id="defs3008" /><g
     transform="matrix(1.25,0,0,-1.25,1.25,291.11413)"
     id="g3012"><path
       d="m 34.0155,66.7528 0,19.4133 3.2771,0 0,-8.4155 9.6378,0 0,8.4155 3.2774,0 0,-19.4133 -3.2774,0 0,7.9427 -9.6378,0 0,-7.9427 -3.2771,0 z m 31.3993,0 -2.8329,0 0,1.9718 c -1.2223,-1.4627 -2.8607,-2.194 -4.9161,-2.194 -1.537,0 -2.8097,0.4348 -3.8186,1.305 -1.0097,0.8705 -1.5134,2.0325 -1.5134,3.4855 0,1.4542 0.536,2.5415 1.6104,3.2632 1.0737,0.7229 2.5276,1.0832 4.3605,1.0832 l 4.0269,0 0,0.5558 c 0,1.963 -1.0925,2.9438 -3.2774,2.9438 -1.3697,0 -2.7958,-0.4997 -4.2769,-1.4998 l -1.3884,1.9443 c 1.7957,1.4261 3.8327,2.1387 6.1097,2.1387 1.7405,0 3.1621,-0.4396 4.2634,-1.3189 1.1015,-0.8793 1.6528,-2.2635 1.6528,-4.1525 l 0,-9.5261 z m -3.1113,5.4992 0,1.2495 -3.4993,0 c -2.2397,0 -3.3605,-0.7035 -3.3605,-2.1104 0,-0.7225 0.2783,-1.2727 0.8339,-1.6526 0.5545,-0.3795 1.3281,-0.5695 2.3185,-0.5695 0.991,0 1.8564,0.2773 2.5974,0.8329 0.7401,0.5555 1.11,1.3053 1.11,2.2501 z m 8.8467,2.4996 0,-7.9988 -3.1108,0 0,14.7756 3.1108,0 0,-2.6938 c 0.4997,0.9074 1.19,1.6194 2.0693,2.1382 0.8793,0.519 1.8286,0.7775 2.8468,0.7775 1.6668,0 3.0129,-0.5091 4.0408,-1.5273 1.0281,-1.0182 1.5418,-2.4908 1.5418,-4.4164 l 0,-9.0538 -3.1111,0 0,8.1099 c 0,2.7218 -1.1296,4.0822 -3.3885,4.0822 -1.0735,0 -2.0086,-0.356 -2.8046,-1.0692 -0.7963,-0.713 -1.1945,-1.7541 -1.1945,-3.1241 z m 19.1503,-8.221 c -1.8698,0 -3.4994,0.7032 -4.8878,2.1109 -1.3884,1.4068 -2.0832,3.2587 -2.0832,5.5548 0,2.2955 0.7129,4.1281 2.1388,5.4992 1.4252,1.37 3.1243,2.0548 5.0964,2.0548 1.9717,0 3.5597,-0.8336 4.7627,-2.4993 l 0,8.1102 3.1111,0 0,-20.6084 -3.1111,0 0,2.2221 c -1.1477,-1.63 -2.8233,-2.4443 -5.0269,-2.4443 z m -3.86,7.5401 c 0,-1.4162 0.453,-2.5685 1.3604,-3.4571 0.9074,-0.889 1.972,-1.3334 3.1943,-1.3334 1.2221,0 2.259,0.4487 3.1108,1.3473 0.8512,0.8977 1.2773,2.0497 1.2773,3.4577 0,1.4068 -0.4261,2.5823 -1.2773,3.5271 -0.8518,0.9442 -1.8984,1.4168 -3.1391,1.4168 -1.2404,0 -2.3049,-0.4726 -3.1941,-1.4168 -0.8878,-0.9448 -1.3323,-2.1248 -1.3323,-3.5416 z m 25.7596,-2.6663 c 0,-1.4717 -0.5414,-2.6518 -1.6245,-3.5404 -1.0832,-0.8893 -2.4585,-1.3334 -4.1245,-1.3334 -1.1108,0 -2.2682,0.1995 -3.4721,0.5975 -1.2027,0.398 -2.2859,0.9859 -3.2491,1.7626 l 1.8326,2.6115 c 1.5557,-1.2038 3.2125,-1.8056 4.972,-1.8056 0.5372,0 0.9624,0.1065 1.2773,0.3194 0.3152,0.2135 0.4725,0.4952 0.4725,0.8467 0,0.3527 -0.218,0.6764 -0.6525,0.9729 -0.4349,0.2959 -1.065,0.5737 -1.889,0.8328 -0.8241,0.2591 -1.4531,0.4813 -1.8888,0.667 -0.4348,0.1845 -0.93,0.453 -1.4856,0.8048 -1.1296,0.7041 -1.6937,1.7452 -1.6937,3.1249 0,1.3799 0.5547,2.5038 1.6656,3.3743 1.1112,0.8708 2.5458,1.3054 4.3053,1.3054 1.7586,0 3.5178,-0.5925 5.2775,-1.7779 l -1.5556,-2.7768 c -1.2969,0.8892 -2.588,1.3334 -3.875,1.3334 -1.2869,0 -1.9298,-0.3526 -1.9298,-1.0562 0,-0.3881 0.2038,-0.6936 0.6106,-0.9159 0.4076,-0.2219 1.0828,-0.4819 2.0279,-0.7775 0.9439,-0.2968 1.6149,-0.5233 2.0129,-0.6809 0.3982,-0.1573 0.875,-0.4025 1.4306,-0.7356 1.0378,-0.6301 1.5554,-1.6806 1.5554,-3.153 z m 5.7149,3.4022 0,-8.0538 -4.1663,0 0,20.6084 4.1663,0 0,-7.3323 c 1.2589,1.2772 2.6708,1.9159 4.2353,1.9159 1.5641,0 2.8837,-0.5556 3.958,-1.6668 1.0732,-1.1109 1.6103,-2.5923 1.6103,-4.4433 l 0,-9.0819 -4.166,0 0,8.1649 c 0,2.2966 -0.8425,3.4444 -2.5277,3.4444 -0.8328,0 -1.5596,-0.3008 -2.1801,-0.9026 -0.6202,-0.6021 -0.9298,-1.4856 -0.9298,-2.6529 z m 24.6283,-8.0538 -3.9158,0 0,1.8048 c -1.0743,-1.3507 -2.4026,-2.027 -3.9861,-2.027 -1.5826,0 -2.9114,0.4583 -3.9849,1.3742 -1.0744,0.917 -1.6115,2.139 -1.6115,3.6666 0,1.5276 0.5556,2.6711 1.6667,3.4302 1.1109,0.7588 2.6289,1.1384 4.5545,1.1384 l 3.1113,0 0,0.0833 c 0,1.592 -0.8428,2.3891 -2.528,2.3891 -0.7214,0 -1.4856,-0.1435 -2.2909,-0.4315 -0.8059,-0.2868 -1.4857,-0.6429 -2.041,-1.0689 l -1.8609,2.6946 c 1.9621,1.4253 4.2026,2.1382 6.7204,2.1382 1.8147,0 3.2958,-0.453 4.4447,-1.3606 1.1477,-0.908 1.7215,-2.3426 1.7215,-4.3053 l 0,-9.5261 z m -4.1942,5.6934 0,0.722 -2.6107,0 c -1.6662,0 -2.4993,-0.5182 -2.4993,-1.5548 0,-0.5369 0.1984,-0.9494 0.5976,-1.2362 0.3982,-0.2869 0.9669,-0.4306 1.7078,-0.4306 0.7399,0 1.3927,0.2268 1.9579,0.6809 0.5644,0.4529 0.8467,1.0593 0.8467,1.8187 z m 10.5197,-5.6934 -4.1664,0 0,20.6084 4.1664,0 0,-10.5826 4.6375,4.944 5.2492,0 -5.6929,-6.0551 5.9151,-8.9147 -4.9428,0 -3.8058,5.7214 -1.3603,-1.4164 0,-4.305 z m 23.6565,2.1662 c -1.6852,-1.5925 -3.6623,-2.3884 -5.9301,-2.3884 -2.2685,0 -4.1434,0.6987 -5.6245,2.097 -1.4813,1.3978 -2.2212,3.2726 -2.2212,5.6237 0,2.3516 0.7543,4.2219 2.2632,5.6103 1.5092,1.3884 3.2916,2.0832 5.3464,2.0832 2.0549,0 3.8004,-0.6202 5.2353,-1.8607 1.4346,-1.2407 2.1521,-2.944 2.1521,-5.1103 l 0,-2.2221 -10.8868,0 c 0.1296,-0.8146 0.5554,-1.4811 1.2773,-2.0001 0.7226,-0.5179 1.537,-0.7767 2.4444,-0.7767 1.4629,0 2.6668,0.4899 3.6104,1.4712 l 2.3335,-2.5271 z m -3.0002,6.8046 c -0.0924,0.8889 -0.4257,1.5741 -1,2.0551 -0.5738,0.481 -1.2728,0.7228 -2.0968,0.7228 -0.8235,0 -1.5783,-0.2505 -2.2635,-0.7509 -0.6848,-0.4994 -1.0828,-1.1749 -1.1939,-2.027 l 6.5542,0 z m 6.0341,-8.5825 c -0.3979,0.4077 -0.5975,0.8986 -0.5975,1.4726 0,0.5738 0.1996,1.0599 0.5975,1.4585 0.398,0.3979 0.8836,0.5964 1.4573,0.5964 0.5752,0 1.065,-0.1985 1.4729,-0.5964 0.4074,-0.3986 0.6103,-0.8847 0.6103,-1.4585 0,-0.574 -0.2029,-1.0649 -0.6103,-1.4726 -0.4079,-0.4067 -0.8977,-0.6105 -1.4729,-0.6105 -0.5737,0 -1.0593,0.2038 -1.4573,0.6105 z m 5.8879,-1.0831 0,15.4704 3.111,0 0,-15.5815 c 0,-1.5545 -0.4671,-2.7907 -1.4023,-3.7077 -0.9354,-0.9159 -2.0647,-1.3745 -3.3885,-1.3745 -1.3235,0 -2.5319,0.4909 -3.6247,1.4717 l 1.4445,2.3332 c 0.6293,-0.6106 1.2635,-0.917 1.9021,-0.917 0.6386,0 1.1251,0.2041 1.4584,0.6114 0.3331,0.4071 0.4995,0.9723 0.4995,1.694 z m 0.1392,18.4142 c -0.3884,0.3886 -0.5837,0.8515 -0.5837,1.3884 0,0.5374 0.1953,1 0.5837,1.3895 0.3892,0.3884 0.8521,0.5825 1.3884,0.5825 0.5371,0 1,-0.1941 1.3892,-0.5825 0.3884,-0.3895 0.5828,-0.8521 0.5828,-1.3895 0,-0.5369 -0.1944,-0.9998 -0.5828,-1.3884 -0.3892,-0.3881 -0.8521,-0.5837 -1.3892,-0.5837 -0.5363,0 -0.9992,0.1956 -1.3884,0.5837 z m 16.2893,-13.3033 c 0,-1.4074 -0.5091,-2.5328 -1.5276,-3.3749 -1.0182,-0.8419 -2.3239,-1.2634 -3.9161,-1.2634 -1.0743,0 -2.1898,0.1941 -3.3463,0.5836 -1.1574,0.3881 -2.1813,0.9343 -3.0691,1.6384 l 1.4996,2.4163 c 1.7217,-1.2963 3.3885,-1.9449 4.9991,-1.9449 0.7033,0 1.2589,0.1627 1.6665,0.4865 0.4077,0.324 0.6106,0.7358 0.6106,1.2364 0,0.7399 -0.9805,1.4069 -2.944,1.999 -0.1477,0.0559 -0.2589,0.0927 -0.3331,0.1111 -3.0736,0.8337 -4.6109,2.2221 -4.6109,4.1661 0,1.3703 0.533,2.467 1.5979,3.2913 1.0644,0.8241 2.4486,1.2359 4.1519,1.2359 1.7037,0 3.3143,-0.5003 4.8328,-1.4992 l -1.167,-2.3054 c -1.203,0.7959 -2.5081,1.1945 -3.9158,1.1945 -0.7404,0 -1.3422,-0.1349 -1.8048,-0.4034 -0.4629,-0.2679 -0.6948,-0.6709 -0.6948,-1.2084 0,-0.4813 0.2407,-0.8328 0.7217,-1.055 0.3334,-0.1662 0.8014,-0.3238 1.4032,-0.4723 0.6015,-0.148 1.1338,-0.2959 1.5967,-0.4448 0.4629,-0.1476 0.9117,-0.314 1.3473,-0.4994 0.4349,-0.1854 0.9023,-0.4442 1.4026,-0.7778 0.9998,-0.6665 1.4996,-1.7034 1.4996,-3.1102"
       id="path3014"
       style="fill:#0a5990;fill-opacity:1;fill-rule:nonzero;stroke:none" /><path
       d="m 120.2839,164.9954 -12.094,0 c -2.0798,0 -3.9739,-0.853 -5.3473,-2.2266 l -0.005,0.005 c -1.37,-1.3725 -2.2213,-3.2675 -2.2213,-5.3523 l 0,-11.9262 -6.0315,0 0,11.9262 c 0,3.7366 1.5312,7.1353 3.994,9.6001 l 0,0.011 c 2.4644,2.4647 5.8669,3.994 9.6114,3.994 l 12.094,0 c 3.7446,0 7.1467,-1.5293 9.6115,-3.994 2.4644,-2.4644 3.9937,-5.8669 3.9937,-9.6111 l 0,-4.6214 -6.0313,0 0,4.6214 c 0,2.0795 -0.8529,3.9736 -2.2266,5.347 -1.3734,1.3736 -3.2675,2.2266 -5.3473,2.2266"
       id="path3016"
       style="fill:#0a5990;fill-opacity:1;fill-rule:nonzero;stroke:none" /><path
       d="m 141.0378,145.4956 0,-14.1667 0,-14.167 c 0,-0.8966 -0.5216,-1.6719 -1.2784,-2.0379 l -12.1221,-6.9987 -1.131,1.9528 1.131,-1.9588 c -0.0612,-0.0351 -0.1242,-0.0674 -0.1874,-0.0972 l -12.0869,-6.9769 0.005,-0.009 c -0.79,-0.4564 -1.7419,-0.3815 -2.4409,0.1148 l -12.081,6.9744 1.1225,1.9528 -1.1313,-1.9588 -0.1287,0.0803 -12.1379,7.0078 -0.0026,-0.005 c -0.7245,0.4193 -1.1304,1.1778 -1.1313,1.9591 l 0,0.006 0,14.1608 0,14.1667 c 0,1.2492 1.0131,2.2623 2.2626,2.2623 l 49.076,0 c 1.2489,0 2.2623,-1.0131 2.2623,-2.2623 z m -4.5247,-23.2762 -18.4634,11.2904 c -5.2127,-3.1184 -11.6473,-3.3919 -17.1057,-0.729 9.809,5.8852 15.6382,9.14 18.04,10.4521 l -27.0221,0 0,-11.904 0,-12.8676 11.0004,-6.3508 0.1374,-0.0734 -0.002,-0.004 0.002,-0.002 -0.002,-0.003 11.1399,-6.4313 10.9647,6.3298 c 0.055,0.0394 0.1125,0.0763 0.1732,0.1114 l 0.002,-0.004 11.1359,6.4287 0,3.7581 z"
       id="path3018"
       style="fill:#0a5990;fill-opacity:1;fill-rule:nonzero;stroke:none" /><path
       d="m 118.6288,125.4713 c -0.4725,0.2705 -1.0755,0.1069 -1.3456,-0.3656 -0.2704,-0.4726 -0.1066,-1.0752 0.3659,-1.3454 l 16.9475,-9.7296 c 0.4726,-0.2704 1.0755,-0.1066 1.3459,0.3657 0.2704,0.4725 0.1066,1.0752 -0.3656,1.3456 l -16.9481,9.7293 z"
       id="path3020"
       style="fill:#0a5990;fill-opacity:1;fill-rule:nonzero;stroke:none" /><path
       d="m 110.8959,115.2522 c -0.47,0.2704 -1.0718,0.1074 -1.3422,-0.3623 -0.2705,-0.47 -0.1077,-1.0718 0.3622,-1.3422 l 12.8824,-7.4356 c 0.47,-0.2701 1.072,-0.1077 1.3419,0.3623 0.2704,0.47 0.1077,1.0718 -0.3617,1.3422 l -12.8826,7.4356 z"
       id="path3022"
       style="fill:#0a5990;fill-opacity:1;fill-rule:nonzero;stroke:none" /><path
       d="m 114.5823,120.0779 c -0.4697,0.2704 -1.0717,0.1077 -1.3419,-0.3623 -0.2704,-0.47 -0.1074,-1.0718 0.3623,-1.3422 l 14.3416,-8.2692 c 0.47,-0.2705 1.0718,-0.1075 1.3422,0.3622 0.2704,0.47 0.1077,1.0718 -0.3623,1.3422 l -14.3419,8.2693 z"
       id="path3024"
       style="fill:#0a5990;fill-opacity:1;fill-rule:nonzero;stroke:none" /></g></svg>